<svg width="23" height="18" viewBox="0 0 23 18" fill="none" xmlns="http://www.w3.org/2000/svg">
<path d="M21.1904 4.75576H20.5665V11.5978C20.5913 11.8565 20.5613 12.1176 20.4784 12.364C20.3955 12.6104 20.2616 12.8366 20.0853 13.028C19.9091 13.2194 19.6945 13.3717 19.4554 13.4749C19.2163 13.5782 18.9582 13.6301 18.6977 13.6273H6.48145V13.953C6.55358 14.4787 6.81413 14.9606 7.21487 15.3094C7.61561 15.6583 8.12942 15.8505 8.66123 15.8504H18.0014L21.5748 17.9464L21.0562 15.8504H21.1933C21.4264 15.8405 21.6549 15.7823 21.8642 15.6796C22.0736 15.577 22.2594 15.4321 22.4097 15.2541C22.56 15.0761 22.6717 14.8688 22.7376 14.6456C22.8035 14.4223 22.8223 14.1877 22.7927 13.9568V6.3805C22.8173 6.16343 22.793 5.94361 22.7215 5.73711C22.6501 5.53061 22.5333 5.34264 22.3798 5.18692C22.2262 5.03121 22.0398 4.91169 21.834 4.83709C21.6282 4.7625 21.4083 4.73471 21.1904 4.75576Z" fill="white"/>
<path d="M16.8733 0H2.68489C1.43709 0 0 1.10629 0 2.17789V10.7545C0 11.7365 1.21689 12.4458 2.38453 12.5556L1.62446 15.4341L6.493 12.5758H16.8733C18.1221 12.5758 19.2733 11.8203 19.2733 10.7545V2.17789C19.2081 1.58533 18.9282 1.03695 18.4862 0.635871C18.0443 0.234795 17.4707 0.00866138 16.8733 0ZM4.84923 7.24292C4.59579 7.24273 4.3481 7.16757 4.13747 7.02693C3.92684 6.8863 3.76272 6.68652 3.66587 6.45283C3.56902 6.21915 3.54377 5.96206 3.59333 5.71406C3.64289 5.46607 3.76503 5.2383 3.9443 5.05955C4.12358 4.88081 4.35194 4.75911 4.60052 4.70985C4.8491 4.66058 5.10674 4.68596 5.34086 4.78278C5.57499 4.8796 5.77509 5.0435 5.91587 5.25378C6.05665 5.46405 6.13179 5.71125 6.13179 5.96413C6.13179 6.13214 6.09861 6.29851 6.03414 6.45372C5.96968 6.60894 5.87519 6.74995 5.75608 6.86871C5.63697 6.98747 5.49557 7.08164 5.33997 7.14585C5.18437 7.21006 5.01761 7.24304 4.84923 7.24292ZM9.63664 7.24292C9.38316 7.24292 9.13538 7.16792 8.92462 7.0274C8.71386 6.88689 8.5496 6.68717 8.4526 6.4535C8.35559 6.21983 8.33021 5.96271 8.37967 5.71465C8.42912 5.46659 8.55118 5.23874 8.73041 5.05989C8.90965 4.88105 9.13801 4.75926 9.38661 4.70992C9.63522 4.66058 9.89291 4.6859 10.1271 4.78269C10.3613 4.87948 10.5614 5.04338 10.7023 5.25368C10.8431 5.46397 10.9182 5.71121 10.9182 5.96413C10.9182 6.30329 10.7832 6.62855 10.5429 6.86837C10.3025 7.10819 9.97654 7.24292 9.63664 7.24292ZM14.425 7.24292C14.1715 7.24292 13.9238 7.16792 13.713 7.0274C13.5022 6.88689 13.338 6.68717 13.241 6.4535C13.144 6.21983 13.1186 5.96271 13.168 5.71465C13.2175 5.46659 13.3396 5.23874 13.5188 5.05989C13.698 4.88105 13.9264 4.75926 14.175 4.70992C14.4236 4.66058 14.6813 4.6859 14.9155 4.78269C15.1497 4.87948 15.3498 5.04338 15.4906 5.25368C15.6315 5.46397 15.7066 5.71121 15.7066 5.96413C15.7064 6.30321 15.5713 6.62832 15.331 6.86809C15.0907 7.10785 14.7648 7.24266 14.425 7.24292Z" fill="white"/>
</svg>
