<svg width="22" height="22" viewBox="0 0 22 22" fill="none" xmlns="http://www.w3.org/2000/svg">
<path d="M21.4327 10.2516C21.5261 10.1497 21.5982 10.03 21.6446 9.89974C21.6909 9.76947 21.7108 9.63123 21.7028 9.49317C21.6949 9.35512 21.6594 9.22005 21.5984 9.09595C21.5374 8.97185 21.4522 8.86123 21.3477 8.77062L11.6477 0.283617C11.4262 0.0973805 11.1453 -0.00322412 10.8559 7.88172e-05C10.5665 0.00338176 10.2879 0.110373 10.0707 0.301617L0.337719 9.22362C0.235443 9.31638 0.152881 9.42877 0.09495 9.5541C0.0370192 9.67943 0.00490474 9.81514 0.000519209 9.95315C-0.00386632 10.0912 0.0195668 10.2286 0.069423 10.3574C0.119279 10.4861 0.194538 10.6036 0.290719 10.7026L0.534719 10.9566C0.717843 11.1602 0.972412 11.2854 1.24546 11.306C1.51852 11.3267 1.78903 11.2413 2.00072 11.0676L2.72772 10.4166V19.9526C2.72824 20.2323 2.83936 20.5004 3.03683 20.6984C3.23429 20.8964 3.50207 21.0083 3.78172 21.0096H7.57572C7.71479 21.0096 7.8525 20.9822 7.98098 20.929C8.10946 20.8758 8.22621 20.7978 8.32454 20.6994C8.42288 20.6011 8.50089 20.4844 8.55411 20.3559C8.60733 20.2274 8.63472 20.0897 8.63472 19.9506V13.2816H13.4737V19.9536C13.4658 20.0893 13.4857 20.2252 13.5321 20.353C13.5785 20.4807 13.6504 20.5977 13.7436 20.6967C13.8367 20.7957 13.949 20.8747 14.0737 20.9289C14.1984 20.983 14.3328 21.0112 14.4687 21.0116H18.4897C18.6288 21.0116 18.7665 20.9842 18.895 20.931C19.0235 20.8778 19.1402 20.7998 19.2385 20.7014C19.3369 20.6031 19.4149 20.4864 19.4681 20.3579C19.5213 20.2294 19.5487 20.0917 19.5487 19.9526V10.5526L19.9977 10.9466C20.2447 11.1636 20.7647 10.9896 21.1577 10.5566L21.4327 10.2516Z" fill="white"/>
</svg>
