<svg width="36" height="36" viewBox="0 0 36 36" fill="none" xmlns="http://www.w3.org/2000/svg">
<circle cx="18" cy="18" r="18" fill="#F2F3F5"/>
<path d="M25.405 24.9941V23.0989C25.405 22.0936 25.0057 21.1295 24.2948 20.4187C23.584 19.7078 22.6199 19.3085 21.6146 19.3085H14.0337C13.0284 19.3085 12.0643 19.7078 11.3535 20.4187C10.6426 21.1295 10.2433 22.0936 10.2433 23.0989V24.9941" stroke="#C6CCD1" stroke-width="2.04156" stroke-linecap="round" stroke-linejoin="round"/>
<path d="M17.8242 15.5184C19.9176 15.5184 21.6146 13.8214 21.6146 11.728C21.6146 9.6346 19.9176 7.93756 17.8242 7.93756C15.7308 7.93756 14.0338 9.6346 14.0338 11.728C14.0338 13.8214 15.7308 15.5184 17.8242 15.5184Z" stroke="#C6CCD1" stroke-width="2.04156" stroke-linecap="round" stroke-linejoin="round"/>
</svg>
